if (_typeface_js && _typeface_js.loadFace) _typeface_js.loadFace({"glyphs":{"S":{"x_min":31.5,"x_max":674.609375,"ha":698,"o":"m 674 906 q 574 952 637 932 q 442 973 512 973 q 320 952 375 973 q 225 896 264 932 q 165 810 187 860 q 144 701 144 760 q 157 621 144 657 q 196 555 170 586 q 264 493 223 523 q 360 429 305 462 q 425 386 399 405 q 467 347 451 366 q 490 306 483 328 q 497 258 497 284 q 446 139 497 182 q 319 96 395 96 q 184 123 249 96 q 67 187 119 150 l 31 66 q 155 11 80 36 q 312 -14 230 -14 q 431 4 374 -14 q 531 58 488 22 q 600 150 574 95 q 626 275 626 204 q 616 350 626 315 q 582 419 606 386 q 519 484 559 451 q 421 551 480 517 q 351 597 380 576 q 305 637 323 618 q 280 677 288 657 q 273 721 273 697 q 282 774 273 749 q 309 819 291 800 q 358 851 328 839 q 428 863 388 863 q 541 840 491 863 q 638 786 592 818 l 674 906 "},"/":{"x_min":-94.4375,"x_max":641.671875,"ha":563,"o":"m 641 747 l 536 769 l -94 -80 l 12 -102 l 641 747 "},"K":{"x_min":54.171875,"x_max":844.453125,"ha":796,"o":"m 844 959 l 690 959 l 265 530 l 333 959 l 205 959 l 54 0 l 181 0 l 258 486 l 591 -9 l 722 19 l 388 510 l 844 959 "},"7":{"x_min":46.15625,"x_max":669.78125,"ha":676,"o":"m 653 609 l 669 704 l 92 704 l 92 594 l 519 594 l 46 -232 l 155 -260 l 653 609 "},"d":{"x_min":44.046875,"x_max":705,"ha":761,"o":"m 705 406 q 620 622 705 540 q 366 704 535 704 l 155 704 l 44 0 l 263 0 q 448 32 366 0 q 586 121 530 65 q 674 251 643 177 q 705 406 705 324 m 576 399 q 554 283 576 337 q 493 192 532 230 q 397 132 453 154 q 273 111 341 111 l 187 111 l 263 593 l 362 593 q 519 544 462 593 q 576 399 576 495 "},",":{"x_min":-34.71875,"x_max":230.5625,"ha":315,"o":"m 230 165 l 87 165 l -34 -168 l 31 -185 l 230 165 "},"Y":{"x_min":130.5625,"x_max":909.71875,"ha":842,"o":"m 909 959 l 765 959 l 444 500 l 262 968 l 130 940 l 362 380 l 301 0 l 429 0 l 488 380 l 909 959 "},"E":{"x_min":54.109375,"x_max":686.046875,"ha":649,"o":"m 686 959 l 205 959 l 54 0 l 547 0 l 565 114 l 199 114 l 252 443 l 543 443 l 543 560 l 270 560 l 315 845 l 668 845 l 686 959 "},"y":{"x_min":73.609375,"x_max":711.109375,"ha":672,"o":"m 711 704 l 568 704 l 334 383 l 200 716 l 73 688 l 258 272 l 215 0 l 341 0 l 384 273 l 711 704 "},"\"":{"x_min":179,"x_max":577.84375,"ha":568,"o":"m 577 939 l 432 939 l 432 666 l 497 649 l 577 939 m 324 939 l 179 939 l 179 666 l 244 649 l 324 939 "},"‹":{"x_min":51.390625,"x_max":450,"ha":460,"o":"m 450 704 l 331 704 l 51 349 l 234 -7 l 336 14 l 184 342 l 450 704 "},"„":{"x_min":-12.5,"x_max":472.21875,"ha":568,"o":"m 219 165 l 76 165 l -12 -142 l 54 -158 l 219 165 m 472 165 l 329 165 l 240 -142 l 306 -158 l 472 165 "},"g":{"x_min":58,"x_max":675.828125,"ha":727,"o":"m 611 57 l 664 391 l 380 391 l 380 281 l 530 281 l 503 117 q 446 97 475 104 q 377 89 417 89 q 237 144 286 89 q 189 308 189 199 q 204 417 189 363 q 250 515 219 472 q 329 585 281 558 q 441 613 376 613 q 556 589 509 613 q 639 533 603 565 l 675 647 q 584 696 636 676 q 449 717 531 717 q 285 682 357 717 q 161 591 212 648 q 84 458 110 533 q 58 297 58 382 q 137 67 58 146 q 359 -12 217 -12 q 497 7 437 -12 q 611 57 557 26 "},"–":{"x_min":76.390625,"x_max":573.609375,"ha":631,"o":"m 555 336 l 573 453 l 94 453 l 76 336 l 555 336 "},"ƒ":{"x_min":61.046875,"x_max":479,"ha":523,"o":"m 479 602 l 479 714 q 458 716 467 716 q 426 716 448 716 q 267 668 320 716 q 195 515 213 621 l 174 389 l 76 389 l 61 285 l 158 285 l 73 -258 l 195 -238 l 269 285 l 418 285 l 418 389 l 286 389 l 306 514 q 410 608 323 608 q 451 606 434 608 q 479 602 467 605 "},"e":{"x_min":42.890625,"x_max":587.328125,"ha":604,"o":"m 484 -1 l 502 109 l 185 109 l 217 310 l 479 310 l 479 420 l 234 420 l 262 594 l 569 594 l 587 704 l 155 704 l 42 -1 l 484 -1 "},"J":{"x_min":0,"x_max":497.21875,"ha":501,"o":"m 497 959 l 369 959 l 256 252 q 236 180 250 209 q 204 135 223 152 q 162 111 186 118 q 109 105 138 105 q 53 109 80 105 q 0 121 26 114 l 0 4 q 52 -4 22 -1 q 118 -8 81 -8 q 297 52 231 -8 q 384 246 363 112 l 497 959 "},"|":{"x_min":129,"x_max":240,"ha":369,"o":"m 240 -240 l 240 1003 l 129 985 l 129 -258 l 240 -240 "},"^":{"x_min":193.0625,"x_max":580.5625,"ha":667,"o":"m 580 811 l 479 998 l 363 998 l 193 802 l 273 802 l 409 900 l 513 797 l 580 811 "},"q":{"x_min":56,"x_max":715.828125,"ha":774,"o":"m 715 420 q 695 536 715 482 q 638 630 675 590 q 546 694 600 671 q 424 717 492 717 q 283 685 350 717 q 166 596 217 653 q 85 461 115 540 q 56 290 56 383 q 74 168 56 218 q 128 81 93 118 q 211 20 162 45 q 319 -27 260 -5 l 622 -144 l 658 -46 l 483 20 q 569 74 526 41 q 643 156 611 108 q 695 270 675 205 q 715 420 715 336 m 595 411 q 576 282 595 341 q 525 179 557 223 q 451 111 493 136 q 361 86 408 86 q 225 139 274 86 q 176 293 176 192 q 196 420 176 361 q 247 522 215 479 q 322 589 279 565 q 414 614 365 614 q 547 562 500 614 q 595 411 595 511 "},"b":{"x_min":44.046875,"x_max":587,"ha":652,"o":"m 569 224 q 538 318 569 283 q 459 369 508 354 q 548 431 509 390 q 587 542 587 473 q 531 659 587 615 q 355 704 475 704 l 155 704 l 44 0 l 278 0 q 391 14 338 0 q 484 56 445 29 q 546 127 523 84 q 569 224 569 169 m 468 523 q 430 446 468 474 q 328 418 392 418 l 230 418 l 259 600 l 351 600 q 440 579 413 600 q 468 523 468 559 m 451 223 q 404 134 451 165 q 285 103 357 103 l 180 103 l 213 318 l 320 318 q 416 295 382 318 q 451 223 451 273 "},"D":{"x_min":53.84375,"x_max":865,"ha":908,"o":"m 865 568 q 836 734 865 661 q 753 857 808 807 q 621 933 699 907 q 445 959 544 959 l 205 959 l 53 0 l 291 0 q 526 40 420 0 q 709 157 633 80 q 824 333 783 230 q 865 568 865 436 m 733 554 q 701 364 733 446 q 613 225 670 282 q 306 113 501 113 l 198 113 l 314 846 l 431 846 q 655 773 578 846 q 733 554 733 701 "},"z":{"x_min":-6.65625,"x_max":652.890625,"ha":658,"o":"m 539 0 l 539 103 l 161 103 l 639 615 l 652 704 l 135 704 l 135 600 l 484 600 l 7 89 l -6 0 l 539 0 "},"w":{"x_min":90.28125,"x_max":1072.21875,"ha":1051,"o":"m 1072 704 l 944 704 l 718 161 l 647 704 l 512 704 l 269 161 l 215 715 l 90 687 l 184 -5 l 302 -5 l 558 559 l 631 -5 l 750 -5 l 1072 704 "},"$":{"x_min":-6.0625,"x_max":531.65625,"ha":548,"o":"m 228 80 l 296 302 q 367 252 349 275 q 386 193 386 229 q 347 109 386 139 q 242 80 309 80 l 228 80 m 331 623 l 271 428 q 204 475 221 453 q 187 525 187 496 q 216 595 187 567 q 313 623 246 623 l 331 623 m 386 809 l 356 706 q 333 708 347 708 q 320 708 320 708 q 149 653 212 708 q 87 512 87 599 q 127 402 87 443 q 239 327 168 360 l 166 89 q 96 114 131 98 q 24 155 62 131 l -6 60 q 134 5 57 21 l 88 -139 l 156 -156 l 202 -4 q 218 -6 210 -6 q 237 -6 228 -6 q 335 7 289 -6 q 416 48 381 21 q 470 115 451 75 q 490 207 490 155 q 449 320 490 277 q 327 402 408 364 l 392 613 q 451 591 424 604 q 501 560 478 577 l 531 653 q 424 696 487 684 l 455 792 l 386 809 "},"™":{"x_min":110.9375,"x_max":1082,"ha":1110,"o":"m 1082 479 l 1082 958 l 966 958 l 824 599 l 681 958 l 563 958 l 563 479 l 626 479 l 654 812 l 790 478 l 855 478 l 1004 812 l 1004 479 l 1082 479 m 498 883 l 485 958 l 110 958 l 110 883 l 261 883 l 261 479 l 344 479 l 344 883 l 498 883 "},"\\":{"x_min":51.390625,"x_max":512.5,"ha":557,"o":"m 51 747 l 411 -102 l 512 -80 l 151 769 l 51 747 "},"’":{"x_min":116.671875,"x_max":348.609375,"ha":315,"o":"m 348 959 l 205 959 l 116 651 l 183 635 l 348 959 "},"~":{"x_min":68.0625,"x_max":520.828125,"ha":568,"o":"m 520 468 l 441 485 q 413 429 426 444 q 386 414 401 414 q 354 420 370 414 q 301 448 337 427 q 255 472 275 464 q 208 481 236 481 q 68 322 111 481 l 147 305 q 175 362 162 347 q 202 377 187 377 q 234 370 218 377 q 287 342 251 363 q 333 318 313 326 q 380 310 352 310 q 520 468 476 310 "},"-":{"x_min":75,"x_max":431.9375,"ha":492,"o":"m 431 454 l 90 454 l 75 336 l 415 336 l 431 454 "},"Q":{"x_min":83,"x_max":921,"ha":967,"o":"m 824 -83 l 592 10 q 726 89 666 37 q 830 213 787 141 q 897 375 873 286 q 921 565 921 464 q 898 730 921 654 q 829 860 875 806 q 714 946 783 915 q 554 977 645 977 q 367 933 454 977 q 218 810 281 889 q 119 625 155 732 q 83 393 83 518 q 99 246 83 309 q 151 133 116 183 q 239 47 185 84 q 369 -21 294 10 l 784 -199 l 824 -83 m 790 558 q 765 374 790 459 q 695 225 740 288 q 590 126 651 162 q 455 90 529 90 q 276 172 338 90 q 214 399 214 254 q 238 585 214 500 q 307 733 263 671 q 412 831 351 796 q 547 867 473 867 q 727 785 665 867 q 790 558 790 704 "},"M":{"x_min":31.984375,"x_max":1088,"ha":1187,"o":"m 1088 959 l 969 959 l 569 172 l 418 959 l 258 959 l 31 0 l 150 0 l 330 771 l 487 -4 l 586 -4 l 957 771 l 957 0 l 1088 0 l 1088 959 "},"C":{"x_min":83,"x_max":829.28125,"ha":832,"o":"m 829 883 q 721 949 784 923 q 566 975 658 975 q 369 926 458 975 q 216 796 280 877 q 117 609 152 715 q 83 390 83 504 q 108 218 83 294 q 183 90 134 142 q 300 10 231 38 q 455 -17 369 -17 q 589 3 520 -17 q 714 60 658 24 l 714 184 q 590 120 655 144 q 462 97 525 97 q 282 172 350 97 q 214 404 214 248 q 238 574 214 491 q 307 720 262 656 q 416 822 352 784 q 559 861 480 861 q 687 831 630 861 q 790 756 744 802 l 829 883 "},"[":{"x_min":28.78125,"x_max":449.609375,"ha":463,"o":"m 449 704 l 157 704 l 28 -105 l 326 -105 l 326 -29 l 146 -29 l 252 628 l 437 628 l 449 704 "},"L":{"x_min":54.28125,"x_max":514,"ha":604,"o":"m 514 0 l 514 114 l 198 114 l 333 958 l 205 958 l 54 0 l 514 0 "},"!":{"x_min":66.671875,"x_max":363.890625,"ha":378,"o":"m 363 959 l 213 959 l 141 284 l 226 302 l 363 959 m 231 165 l 93 165 l 66 0 l 205 0 l 231 165 "}," ":{"x_min":0,"x_max":0,"ha":292},"{":{"x_min":54,"x_max":520.390625,"ha":530,"o":"m 520 704 l 396 704 q 265 665 308 704 q 222 555 222 626 l 222 469 q 193 367 222 398 q 102 336 164 336 l 54 336 l 54 262 l 84 262 q 154 243 132 262 q 177 189 177 225 q 170 144 177 169 q 157 93 164 119 q 143 42 149 67 q 137 -3 137 17 q 171 -80 137 -55 q 266 -106 206 -106 l 398 -106 l 398 -32 l 307 -32 q 244 15 244 -32 q 250 53 244 30 q 263 103 256 77 q 276 153 270 128 q 283 198 283 178 q 261 261 283 239 q 193 294 239 282 l 193 296 q 289 343 252 309 q 326 454 326 377 l 326 544 q 345 606 326 584 q 407 629 364 629 l 509 629 l 520 704 "},"X":{"x_min":-16.671875,"x_max":863.890625,"ha":832,"o":"m 863 959 l 719 959 l 459 610 l 298 968 l 169 940 l 375 503 l -16 0 l 127 0 l 426 396 l 609 -9 l 741 18 l 511 504 l 863 959 "},"P":{"x_min":54.28125,"x_max":718,"ha":715,"o":"m 718 705 q 634 895 718 831 q 390 959 550 959 l 205 959 l 54 0 l 182 0 l 243 390 l 318 390 q 489 412 415 390 q 614 476 563 434 q 691 576 665 518 q 718 705 718 634 m 589 690 q 529 552 589 601 q 340 503 470 503 l 262 503 l 315 846 l 395 846 q 544 803 500 846 q 589 690 589 761 "},"%":{"x_min":72,"x_max":864,"ha":904,"o":"m 787 694 l 705 715 l 146 12 l 228 -6 l 787 694 m 864 239 q 827 362 864 315 q 720 409 791 409 q 648 388 682 409 q 591 335 615 368 q 552 257 566 301 q 539 162 539 213 q 574 39 539 86 q 680 -8 609 -8 q 752 12 719 -8 q 811 66 786 32 q 850 144 836 100 q 864 239 864 189 m 778 240 q 771 175 778 207 q 753 117 765 143 q 723 76 740 91 q 683 61 705 61 q 639 85 655 61 q 624 158 624 109 q 630 226 624 193 q 648 284 636 259 q 678 324 661 309 q 718 340 696 340 q 762 316 746 340 q 778 240 778 292 m 397 544 q 361 669 397 622 q 253 717 326 717 q 181 696 215 717 q 124 642 148 676 q 85 563 99 608 q 72 469 72 518 q 107 345 72 392 q 213 299 142 299 q 285 319 252 299 q 344 373 319 339 q 383 451 369 407 q 397 544 397 496 m 311 549 q 304 482 311 515 q 285 424 298 450 q 256 383 273 398 q 216 368 238 368 q 174 392 190 368 q 158 466 158 416 q 164 533 158 500 q 182 590 170 565 q 211 631 194 615 q 251 648 228 648 q 295 622 279 648 q 311 549 311 597 "},"#":{"x_min":44,"x_max":732,"ha":775,"o":"m 732 447 l 732 536 l 602 536 l 631 687 l 538 709 l 504 536 l 341 536 l 373 704 l 274 704 l 241 536 l 67 536 l 84 447 l 226 447 l 188 255 l 44 255 l 44 167 l 171 167 l 144 16 l 237 -7 q 242 19 237 -7 q 252 79 246 46 q 263 140 258 113 q 269 168 269 168 l 433 168 l 402 0 l 499 0 q 504 26 499 0 q 515 83 509 52 q 526 141 520 114 q 531 168 531 168 l 706 168 l 691 255 l 549 255 l 586 447 l 732 447 m 494 453 l 455 251 l 280 251 l 320 453 l 494 453 "},"_":{"x_min":-76.390625,"x_max":573.609375,"ha":631,"o":"m 573 -49 l -61 -49 l -76 -145 l 558 -145 l 573 -49 "},"+":{"x_min":69.4375,"x_max":730.5625,"ha":794,"o":"m 713 299 l 730 402 l 462 402 l 505 678 l 397 678 l 354 402 l 86 402 l 69 299 l 337 299 l 294 22 l 402 22 l 445 299 l 713 299 "},"":{"x_min":69,"x_max":894,"ha":963,"o":"m 894 -278 l 894 1002 l 754 1002 l 713 1111 l 249 1111 l 208 1002 l 69 1002 l 69 232 q 101 218 88 232 q 113 187 113 205 q 101 155 113 168 q 69 143 88 143 l 69 -278 l 356 -278 l 367 -259 l 593 -259 l 604 -278 l 894 -278 m 555 782 l 635 782 l 635 763 l 576 763 l 576 671 l 628 671 l 628 651 l 576 651 l 576 542 l 555 542 l 555 782 m 255 782 l 276 782 l 276 672 l 341 672 l 341 782 l 362 782 l 362 543 l 341 543 l 341 653 l 276 653 l 276 543 l 255 543 l 255 782 m 638 547 l 638 569 q 652 563 644 566 q 666 561 660 561 q 689 591 689 561 l 689 782 l 711 782 l 711 591 q 667 542 711 542 q 651 543 660 542 q 638 547 642 544 m 726 449 l 737 449 l 737 415 l 766 449 l 780 449 l 755 420 l 781 385 l 769 385 l 747 413 l 737 403 l 737 385 l 726 385 l 726 449 m 677 406 l 660 406 l 660 385 l 650 385 l 650 449 l 678 449 q 695 442 689 449 q 701 429 701 436 q 687 408 701 413 l 703 385 l 691 385 l 677 406 m 591 383 q 568 392 576 383 q 559 416 559 402 q 568 439 559 429 q 591 450 576 450 q 615 439 606 450 q 625 416 625 429 q 615 392 625 402 q 591 383 606 383 m 513 417 l 531 449 l 544 449 l 519 408 l 519 385 l 508 385 l 508 408 l 482 449 l 495 449 l 513 417 m 268 449 l 313 449 l 313 439 l 279 439 l 279 422 l 309 422 l 309 413 l 279 413 l 279 395 l 313 395 l 313 385 l 268 385 l 268 449 m 183 449 l 193 449 l 227 404 l 227 449 l 239 449 l 239 385 l 229 385 l 194 429 l 194 385 l 183 385 l 183 449 m 334 449 l 345 449 l 359 400 l 360 400 l 375 449 l 386 449 l 400 400 l 402 400 l 416 449 l 427 449 l 407 383 l 396 383 l 381 431 l 380 431 l 366 383 l 355 383 l 334 449 m 453 665 q 474 709 474 687 q 469 728 474 720 q 456 735 464 735 q 442 728 448 735 q 437 709 437 720 q 441 688 437 698 q 453 665 446 679 m 474 587 l 446 641 q 426 595 426 620 q 432 569 426 580 q 449 558 438 558 q 464 567 456 558 q 474 587 471 576 m 677 415 q 690 427 690 415 q 676 439 690 439 l 661 439 l 661 415 l 677 415 m 590 393 q 606 399 600 393 q 613 416 613 406 q 606 432 613 424 q 590 440 600 440 q 575 432 581 440 q 570 416 570 424 q 575 399 570 406 q 590 393 581 393 m 484 608 q 490 628 487 617 q 496 649 494 639 l 515 645 q 507 617 512 630 q 496 591 502 603 l 519 550 l 503 538 l 487 572 l 485 572 q 471 549 480 559 q 448 538 461 538 q 416 553 428 538 q 405 592 405 569 q 437 655 405 630 q 423 682 428 671 q 417 709 417 694 q 427 738 417 725 q 456 752 438 752 q 484 738 475 752 q 494 709 494 725 q 484 678 494 693 q 461 651 475 664 l 484 608 "},"‚":{"x_min":-12.5,"x_max":219.4375,"ha":315,"o":"m 219 165 l 76 165 l -12 -142 l 54 -158 l 219 165 "},")":{"x_min":29,"x_max":374,"ha":416,"o":"m 374 398 q 328 587 374 507 q 212 736 282 666 l 112 714 q 220 555 185 630 q 255 396 255 479 q 200 170 255 268 q 29 -6 146 72 l 29 -101 q 290 120 207 -5 q 374 398 374 247 "},"'":{"x_min":179,"x_max":324.828125,"ha":315,"o":"m 324 939 l 179 939 l 179 666 l 244 649 l 324 939 "},"}":{"x_min":-7.375,"x_max":459,"ha":530,"o":"m 459 262 l 459 336 l 429 336 q 358 354 380 336 q 336 408 336 372 q 342 452 336 427 q 356 503 348 477 q 369 554 363 529 q 376 601 376 580 q 340 679 376 654 q 246 704 305 704 l 116 704 l 116 629 l 205 629 q 269 581 269 629 q 262 543 269 566 q 249 495 256 520 q 236 443 242 469 q 230 399 230 417 q 251 335 230 358 q 320 302 273 313 l 320 301 q 223 253 259 287 q 187 144 187 219 l 187 53 q 167 -9 187 13 q 105 -32 148 -32 l 3 -32 l -7 -106 l 116 -106 q 249 -66 206 -106 q 293 42 293 -27 l 293 130 q 321 230 293 199 q 411 262 349 262 l 459 262 "},"‰":{"x_min":97,"x_max":1057,"ha":1110,"o":"m 1057 480 q 1022 683 1057 592 q 924 839 987 774 q 772 940 861 904 q 577 977 684 977 q 382 940 470 977 q 231 838 294 904 q 132 681 167 772 q 97 478 97 589 q 131 275 97 366 q 229 119 166 184 q 381 18 292 54 q 576 -18 469 -18 q 770 18 681 -18 q 922 120 859 54 q 1021 277 986 186 q 1057 480 1057 369 m 996 479 q 964 287 996 371 q 875 147 932 204 q 743 61 819 90 q 577 32 666 32 q 412 61 488 32 q 279 147 335 90 q 190 287 223 204 q 158 479 158 371 q 189 671 158 587 q 278 811 221 754 q 410 897 334 868 q 577 927 487 927 q 741 897 665 927 q 874 811 818 868 q 963 671 930 754 q 996 479 996 587 m 656 441 q 733 497 704 459 q 763 594 763 536 q 709 718 763 673 q 567 763 656 763 l 408 763 l 408 215 l 501 215 l 501 425 l 557 425 l 716 208 l 814 230 l 656 441 m 564 681 q 642 656 616 681 q 669 591 669 632 q 640 526 669 548 q 562 504 612 504 l 501 504 l 501 681 l 564 681 "},"a":{"x_min":-26.390625,"x_max":661.109375,"ha":744,"o":"m 480 282 l 248 282 l 413 600 l 415 600 l 480 282 m 193 176 l 502 176 l 541 -12 l 661 15 l 500 712 l 361 712 l -26 0 l 101 0 l 193 176 "},"T":{"x_min":123.828125,"x_max":828,"ha":779,"o":"m 828 845 l 828 959 l 141 959 l 123 845 l 408 845 l 275 0 l 403 0 l 536 845 l 828 845 "},"—":{"x_min":76.390625,"x_max":1204.171875,"ha":1261,"o":"m 1186 338 l 1204 452 l 94 452 l 76 338 l 1186 338 "},"=":{"x_min":70.828125,"x_max":755.5625,"ha":819,"o":"m 737 450 l 755 561 l 137 561 l 119 450 l 737 450 m 688 139 l 706 250 l 88 250 l 70 139 l 688 139 "},"N":{"x_min":54.171875,"x_max":898.609375,"ha":908,"o":"m 898 959 l 783 959 l 673 255 l 331 959 l 205 959 l 54 0 l 169 0 l 291 775 l 668 0 l 747 0 l 898 959 "},"2":{"x_min":-7.046875,"x_max":593,"ha":640,"o":"m 529 0 l 529 101 l 170 101 l 354 238 q 446 309 402 275 q 522 379 490 344 q 574 454 555 415 q 593 539 593 493 q 529 668 593 619 q 358 717 465 717 q 228 698 289 717 q 113 650 166 680 l 113 540 q 234 594 177 577 q 338 611 291 611 q 426 585 392 611 q 461 516 461 559 q 446 458 461 484 q 408 407 431 431 q 354 360 384 383 q 294 313 324 337 l 8 97 l -7 0 l 529 0 "},"j":{"x_min":-6,"x_max":395.390625,"ha":438,"o":"m 310 170 l 395 704 l 269 704 l 189 199 q 155 120 181 144 q 75 97 128 97 q 30 99 52 97 q -6 105 7 102 l -6 0 q 27 -4 3 -2 q 91 -7 50 -7 q 164 2 128 -7 q 230 31 199 11 q 281 86 260 52 q 310 170 302 120 "},"Z":{"x_min":15,"x_max":829.890625,"ha":801,"o":"m 829 959 l 190 959 l 190 849 l 656 849 l 30 93 l 15 0 l 691 0 l 691 110 l 188 110 l 814 865 l 829 959 "},"u":{"x_min":78,"x_max":724.046875,"ha":764,"o":"m 654 270 l 724 704 l 597 704 l 529 276 q 468 140 514 187 q 347 93 421 93 q 239 128 273 93 q 206 212 206 163 q 206 251 206 230 q 210 287 206 272 l 276 704 l 151 704 l 84 281 q 78 204 78 242 q 148 45 78 104 q 336 -14 218 -14 q 548 56 467 -14 q 654 270 630 127 "},"1":{"x_min":83,"x_max":377.453125,"ha":449,"o":"m 266 0 l 377 714 l 277 714 l 83 633 l 83 530 l 239 586 l 145 0 l 266 0 "},"›":{"x_min":8.328125,"x_max":406.9375,"ha":460,"o":"m 8 -3 l 127 -3 l 406 351 l 225 708 l 123 686 l 275 358 l 8 -3 "},"k":{"x_min":43.0625,"x_max":695.828125,"ha":672,"o":"m 223 342 l 477 -11 l 605 18 l 351 366 l 695 704 l 545 704 q 522 680 545 704 q 463 622 498 656 q 388 546 429 587 q 312 470 347 505 q 254 411 277 434 q 230 387 230 387 l 280 704 l 155 704 l 43 0 l 168 0 l 223 342 "},"<":{"x_min":73.609375,"x_max":758.328125,"ha":794,"o":"m 644 -5 l 662 111 l 206 345 l 737 582 l 758 705 l 87 397 l 73 302 l 644 -5 "},"t":{"x_min":70.765625,"x_max":643,"ha":640,"o":"m 643 593 l 643 704 l 87 704 l 70 593 l 288 593 l 194 0 l 320 0 l 415 593 l 643 593 "},"W":{"x_min":150,"x_max":1412.5,"ha":1363,"o":"m 1412 959 l 1277 959 l 959 211 l 847 959 l 718 959 l 365 211 l 284 968 l 150 940 l 272 0 l 379 0 l 750 771 l 873 0 l 983 0 l 1412 959 "},"v":{"x_min":81.9375,"x_max":747.21875,"ha":721,"o":"m 747 704 l 613 704 l 322 142 l 205 716 l 81 688 l 240 -12 l 356 -12 l 747 704 "},">":{"x_min":40.28125,"x_max":725,"ha":794,"o":"m 154 705 l 136 589 l 591 354 l 61 118 l 40 -5 l 711 302 l 725 397 l 154 705 "},"s":{"x_min":0.171875,"x_max":558.71875,"ha":600,"o":"m 524 208 q 513 273 524 244 q 480 325 503 301 q 424 370 458 350 q 343 409 390 390 q 279 439 304 426 q 240 465 254 452 q 219 490 225 477 q 213 520 213 504 q 244 583 213 556 q 330 611 276 611 q 428 595 380 611 q 524 552 476 580 l 558 662 q 467 697 522 681 q 344 714 411 714 q 245 698 290 714 q 166 654 200 682 q 114 589 133 626 q 96 507 96 551 q 107 441 96 469 q 144 391 119 414 q 204 348 168 368 q 289 307 240 327 q 383 252 359 276 q 407 196 407 227 q 367 119 407 147 q 268 92 327 92 q 148 111 209 92 q 34 160 87 130 l 0 54 q 118 7 51 26 q 253 -11 186 -11 q 361 4 311 -11 q 447 49 411 20 q 503 118 483 77 q 524 208 524 158 "},"B":{"x_min":54.5,"x_max":695,"ha":733,"o":"m 695 743 q 626 899 695 839 q 414 959 557 959 l 205 959 l 54 0 l 279 0 q 436 19 365 0 q 559 76 508 38 q 639 170 611 113 q 668 299 668 226 q 629 426 668 376 q 522 504 591 476 q 647 592 600 531 q 695 743 695 652 m 569 725 q 505 595 569 637 q 346 554 442 554 l 267 554 l 314 852 l 408 852 q 530 817 492 852 q 569 725 569 782 m 542 291 q 475 151 542 195 q 294 107 408 107 l 196 107 l 251 450 l 333 450 q 491 408 440 450 q 542 291 542 366 "},"…":{"x_min":48.609375,"x_max":883.328125,"ha":1008,"o":"m 856 0 l 883 165 l 744 165 l 718 0 l 856 0 m 522 0 l 548 165 l 409 165 l 383 0 l 522 0 m 187 0 l 213 165 l 75 165 l 48 0 l 187 0 "},"?":{"x_min":137.671875,"x_max":677,"ha":673,"o":"m 254 511 l 254 284 l 329 302 l 363 440 q 511 507 451 475 q 608 578 571 540 q 660 659 644 615 q 677 758 677 703 q 609 917 677 857 q 422 977 542 977 q 267 952 335 977 q 137 886 200 928 l 137 761 q 271 836 205 810 q 401 862 337 862 q 507 830 469 862 q 546 742 546 799 q 534 679 546 706 q 493 627 522 651 q 418 580 465 603 q 304 528 372 557 l 254 511 m 336 165 l 197 165 l 170 0 l 309 0 l 336 165 "},"H":{"x_min":54.171875,"x_max":901.390625,"ha":911,"o":"m 901 959 l 773 959 l 711 560 l 270 560 l 333 959 l 205 959 l 54 0 l 181 0 l 252 443 l 691 443 l 622 0 l 750 0 l 901 959 "},"c":{"x_min":56,"x_max":647.5,"ha":668,"o":"m 560 37 l 560 145 q 471 103 512 117 q 376 90 429 90 q 235 142 286 90 q 185 299 185 195 q 202 418 185 362 q 251 517 219 474 q 328 586 283 560 q 430 612 373 612 q 534 590 491 612 q 608 538 576 568 l 647 652 q 560 699 611 680 q 435 718 510 718 q 281 684 351 718 q 161 592 211 651 q 83 457 111 534 q 56 292 56 380 q 77 165 56 222 q 138 69 99 109 q 235 7 178 29 q 362 -14 292 -14 q 560 37 466 -14 "},"&":{"x_min":10,"x_max":623.78125,"ha":684,"o":"m 623 17 l 507 172 q 562 274 537 220 q 605 390 587 328 l 508 413 q 447 253 484 322 l 314 431 q 279 490 287 466 q 271 542 271 514 q 295 600 271 577 q 358 623 319 623 q 431 609 393 623 q 508 572 469 595 l 541 674 q 461 705 508 693 q 360 717 414 717 q 276 703 314 717 q 211 664 237 689 q 170 605 185 639 q 156 532 156 571 q 168 462 156 496 q 207 392 180 428 q 61 295 113 353 q 10 158 10 238 q 64 32 10 76 q 214 -12 119 -12 q 437 86 339 -12 l 508 -6 l 623 17 m 386 156 q 233 77 315 77 q 156 104 184 77 q 129 172 129 132 q 158 258 129 221 q 257 322 188 295 l 386 156 "},"I":{"x_min":61.109375,"x_max":340.28125,"ha":358,"o":"m 340 959 l 212 959 l 61 0 l 188 0 l 340 959 "},"•":{"x_min":131.9375,"x_max":500,"ha":585,"o":"m 500 479 l 473 651 l 316 675 l 159 651 l 131 479 l 159 308 l 316 283 l 473 308 l 500 479 "},"G":{"x_min":81,"x_max":863.890625,"ha":917,"o":"m 847 524 l 500 524 l 500 407 l 704 407 l 663 144 q 579 109 626 122 q 475 97 533 97 q 371 115 419 97 q 288 172 323 134 q 233 268 253 210 q 213 404 213 326 q 239 578 213 495 q 312 723 265 660 q 425 823 360 785 q 566 861 490 861 q 710 835 643 861 q 826 768 777 809 l 863 894 q 742 953 813 931 q 579 975 670 975 q 379 926 471 975 q 221 796 287 877 q 118 609 155 715 q 81 390 81 504 q 109 218 81 294 q 189 90 137 142 q 311 10 240 38 q 468 -17 382 -17 q 632 7 554 -17 q 776 71 709 31 l 847 524 "},"(":{"x_min":64,"x_max":411,"ha":417,"o":"m 411 640 l 411 740 q 147 518 230 644 q 64 241 64 393 q 75 141 64 187 q 109 53 87 94 q 161 -24 131 12 q 227 -95 191 -61 l 322 -75 q 215 83 248 6 q 183 243 183 159 q 238 466 183 369 q 411 640 294 562 "},"`":{"x_min":276.390625,"x_max":512.5,"ha":631,"o":"m 512 802 l 425 1011 l 276 978 l 433 802 l 512 802 "},"U":{"x_min":93,"x_max":891.671875,"ha":885,"o":"m 891 959 l 763 959 l 666 345 q 587 161 647 226 q 422 97 526 97 q 274 149 324 97 q 225 295 225 201 q 225 337 225 315 q 229 380 225 359 l 320 959 l 193 959 l 102 387 q 95 333 98 361 q 93 283 93 305 q 179 57 93 133 q 412 -18 266 -18 q 546 1 483 -18 q 659 62 609 20 q 742 168 708 104 q 790 319 776 232 l 891 959 "},"◊":{"x_min":162.828125,"x_max":1082,"ha":1110,"o":"m 1082 479 l 1082 958 l 966 958 l 824 599 l 681 958 l 563 958 l 563 479 l 626 479 l 654 812 l 790 478 l 855 478 l 1004 812 l 1004 479 l 1082 479 m 300 472 q 413 508 371 472 q 456 608 456 545 q 449 659 456 637 q 426 699 442 681 q 385 730 410 716 q 323 762 360 745 q 262 798 279 781 q 245 842 245 814 q 263 879 245 864 q 317 894 282 894 q 371 883 344 894 q 422 856 397 873 l 436 935 q 319 965 387 965 q 208 929 250 965 q 167 835 167 894 q 173 785 167 806 q 196 748 180 765 q 237 717 212 731 q 299 687 262 703 q 359 650 341 667 q 378 602 378 633 q 356 558 378 574 q 301 543 334 543 q 235 555 268 543 q 172 587 203 567 l 162 506 q 300 472 221 472 "},"F":{"x_min":54,"x_max":670.65625,"ha":617,"o":"m 670 959 l 205 959 l 54 0 l 181 0 l 249 428 l 529 428 l 529 545 l 267 545 l 315 845 l 652 845 l 670 959 "},"r":{"x_min":44.4375,"x_max":601,"ha":657,"o":"m 475 495 q 427 401 475 434 q 304 369 380 369 l 227 369 l 263 596 l 334 596 q 475 495 475 596 m 419 288 q 550 368 499 312 q 601 509 601 424 q 531 658 601 612 q 340 704 462 704 l 155 704 l 44 0 l 169 0 l 212 272 l 288 272 l 448 -8 l 576 20 l 419 288 "},":":{"x_min":43.0625,"x_max":284.71875,"ha":328,"o":"m 284 663 l 145 663 l 120 498 l 259 498 l 284 663 m 206 165 l 68 165 l 43 0 l 181 0 l 206 165 "},"x":{"x_min":-31.9375,"x_max":686.109375,"ha":672,"o":"m 266 366 q 244 339 266 366 q 188 272 222 312 q 117 183 155 231 q 45 95 79 136 q -9 27 12 54 q -31 0 -31 0 l 112 0 l 329 280 l 469 -12 l 591 15 l 409 363 l 686 704 l 540 704 l 348 452 l 225 716 l 102 688 l 266 366 "},"*":{"x_min":115.28125,"x_max":556.9375,"ha":556,"o":"m 556 790 l 543 831 l 377 802 l 358 966 l 312 966 l 293 802 l 129 831 l 115 790 l 265 718 l 186 569 l 220 546 l 336 667 l 450 546 l 486 569 l 405 718 l 556 790 "},"†":{"x_min":98.390625,"x_max":681.390625,"ha":693,"o":"m 482 848 l 499 958 l 391 958 l 375 848 l 375 661 l 421 661 l 482 848 m 664 554 l 681 660 l 641 660 l 448 629 l 442 583 l 624 554 l 664 554 m 331 583 l 337 629 l 155 660 l 115 660 l 98 554 l 138 554 l 331 583 m 348 23 l 405 387 l 405 553 l 358 553 l 305 387 l 247 23 l 247 -159 l 290 -159 l 348 23 "},"V":{"x_min":134.71875,"x_max":934.71875,"ha":872,"o":"m 934 959 l 797 959 l 409 182 l 266 968 l 134 940 l 327 -4 l 433 -4 l 934 959 "},"h":{"x_min":43.0625,"x_max":725,"ha":768,"o":"m 725 704 l 598 704 l 554 423 l 236 423 l 280 704 l 155 704 l 43 0 l 168 0 l 218 309 l 536 309 l 486 0 l 612 0 l 725 704 "},"0":{"x_min":51,"x_max":669,"ha":720,"o":"m 669 428 q 648 550 669 496 q 591 642 627 604 q 507 699 556 679 q 402 720 457 720 q 262 685 327 720 q 151 590 198 650 q 78 449 105 531 q 51 276 51 368 q 71 155 51 208 q 126 64 91 101 q 210 7 162 26 q 313 -12 257 -12 q 453 22 388 -12 q 565 115 517 56 q 641 256 613 175 q 669 428 669 336 m 548 414 q 531 289 548 347 q 484 187 514 231 q 414 118 455 143 q 323 94 373 94 q 265 106 292 94 q 217 143 238 118 q 184 203 196 167 q 171 288 171 239 q 188 413 171 354 q 235 517 205 472 q 307 587 266 561 q 398 613 348 613 q 455 599 428 613 q 503 561 482 586 q 536 499 524 536 q 548 414 548 461 "},".":{"x_min":36.109375,"x_max":200,"ha":315,"o":"m 200 165 l 61 165 l 36 0 l 175 0 l 200 165 "},"”":{"x_min":116.671875,"x_max":601.390625,"ha":568,"o":"m 348 959 l 205 959 l 116 651 l 183 635 l 348 959 m 601 959 l 458 959 l 369 651 l 436 635 l 601 959 "},"@":{"x_min":64,"x_max":1081,"ha":1148,"o":"m 655 284 q 561 183 599 213 q 491 154 523 154 q 440 176 459 154 q 422 249 422 198 q 439 365 422 313 q 484 454 456 418 q 546 511 512 491 q 615 532 580 532 q 658 529 642 532 q 697 519 674 526 l 655 284 m 656 188 q 717 92 670 124 q 836 61 765 61 q 934 87 889 61 q 1012 161 979 113 q 1062 275 1044 209 q 1081 422 1081 341 q 1049 607 1081 525 q 958 748 1017 690 q 816 839 898 807 q 632 871 733 871 q 407 822 511 871 q 227 689 304 773 q 107 493 151 605 q 64 255 64 381 q 96 63 64 146 q 188 -77 129 -19 q 331 -165 247 -135 q 519 -195 415 -195 q 695 -175 618 -195 q 834 -127 773 -155 l 826 -77 q 688 -127 762 -109 q 524 -146 615 -146 q 365 -122 438 -146 q 239 -49 293 -98 q 155 76 186 0 q 125 256 125 152 q 165 482 125 379 q 273 661 205 586 q 432 778 341 736 q 626 821 523 821 q 782 795 709 821 q 907 720 854 770 q 990 595 959 670 q 1021 420 1021 520 q 972 204 1021 280 q 848 129 923 129 q 783 151 806 129 q 759 217 759 174 q 762 258 759 236 q 767 294 765 280 l 816 584 q 724 611 770 601 q 628 621 677 621 q 513 593 570 621 q 411 514 456 565 q 339 390 366 462 q 312 230 312 318 q 324 155 312 187 q 357 102 337 123 q 405 71 378 81 q 459 61 431 61 q 555 90 510 61 q 656 188 599 119 "},"f":{"x_min":44.765625,"x_max":578.109375,"ha":568,"o":"m 560 594 l 578 704 l 157 704 l 44 0 l 169 0 l 217 299 l 467 299 l 467 409 l 235 409 l 264 594 l 560 594 "},";":{"x_min":-41.671875,"x_max":291.671875,"ha":328,"o":"m 291 662 l 152 662 l 127 497 l 266 497 l 291 662 m 223 165 l 80 165 l -41 -168 l 25 -185 l 223 165 "},"“":{"x_min":113.890625,"x_max":598.609375,"ha":568,"o":"m 113 646 l 256 646 l 345 953 l 279 969 l 113 646 m 366 646 l 509 646 l 598 953 l 531 969 l 366 646 "},"i":{"x_min":50,"x_max":286.109375,"ha":336,"o":"m 175 0 l 286 704 l 161 704 l 50 0 l 175 0 "},"6":{"x_min":75,"x_max":689,"ha":750,"o":"m 689 343 q 620 534 689 467 q 443 602 552 602 q 233 547 346 602 q 382 734 279 653 q 664 856 486 814 l 664 971 q 427 889 534 943 q 241 754 319 835 q 118 565 162 672 q 75 326 75 458 q 95 181 75 245 q 153 75 116 118 q 241 10 190 32 q 352 -12 291 -12 q 486 15 425 -12 q 593 91 548 43 q 663 204 637 139 q 689 343 689 268 m 570 331 q 554 233 570 278 q 512 156 539 189 q 446 106 485 124 q 362 88 408 88 q 238 158 280 88 q 195 350 195 228 q 204 447 195 401 q 407 500 321 500 q 526 459 482 500 q 570 331 570 418 "},"A":{"x_min":-11.109375,"x_max":802.78125,"ha":888,"o":"m 802 18 l 615 963 l 484 963 l -11 0 l 123 0 l 266 288 l 620 288 l 675 -9 l 802 18 m 598 401 l 322 401 l 525 808 l 598 401 "},"‘":{"x_min":113.890625,"x_max":345.828125,"ha":315,"o":"m 113 646 l 256 646 l 345 953 l 279 969 l 113 646 "},"n":{"x_min":44.4375,"x_max":726.390625,"ha":771,"o":"m 615 0 l 726 704 l 612 704 l 531 195 l 277 704 l 155 704 l 44 0 l 158 0 l 241 527 l 508 0 l 615 0 "},"O":{"x_min":83,"x_max":921,"ha":967,"o":"m 921 565 q 898 730 921 654 q 829 860 875 806 q 714 946 783 915 q 554 977 645 977 q 367 933 454 977 q 218 810 281 889 q 119 625 155 732 q 83 393 83 518 q 105 228 83 304 q 174 98 128 152 q 289 12 220 43 q 449 -18 358 -18 q 636 25 549 -18 q 785 148 722 69 q 884 333 848 226 q 921 565 921 440 m 790 558 q 765 374 790 460 q 695 226 740 289 q 590 128 651 164 q 455 92 529 92 q 276 173 338 92 q 214 400 214 254 q 238 585 214 500 q 307 733 263 671 q 412 831 351 796 q 547 867 473 867 q 727 785 665 867 q 790 558 790 704 "},"3":{"x_min":-25,"x_max":590,"ha":657,"o":"m 541 75 q 500 195 541 152 q 396 260 458 239 q 467 295 432 272 q 529 348 502 317 q 573 419 556 380 q 590 507 590 459 q 520 660 590 603 q 330 718 451 718 q 199 696 262 718 q 77 638 136 674 l 77 528 q 198 589 137 567 q 323 612 258 612 q 429 581 390 612 q 468 492 468 550 q 446 416 468 449 q 390 358 425 382 q 313 318 355 334 q 229 296 271 302 l 156 285 l 156 193 l 178 197 q 232 202 200 202 q 371 170 321 202 q 421 72 421 138 q 398 -13 421 27 q 333 -84 375 -53 q 232 -133 291 -115 q 101 -152 173 -152 q 39 -148 73 -152 q -25 -140 5 -145 l -25 -249 q 91 -258 22 -258 q 268 -232 186 -258 q 411 -163 350 -207 q 507 -57 472 -119 q 541 75 541 3 "},"]":{"x_min":-6.609375,"x_max":412.828125,"ha":463,"o":"m 412 704 l 117 704 l 117 628 l 294 628 l 190 -29 l 5 -29 l -6 -105 l 285 -105 l 412 704 "},"m":{"x_min":35.15625,"x_max":906,"ha":1024,"o":"m 906 0 l 906 704 l 756 704 l 472 138 l 372 704 l 203 704 l 35 0 l 149 0 l 282 576 l 392 -3 l 508 -3 l 801 576 l 753 0 l 906 0 "},"9":{"x_min":61,"x_max":676,"ha":750,"o":"m 676 376 q 655 522 676 458 q 596 629 634 586 q 508 694 559 672 q 396 717 456 717 q 262 689 324 717 q 156 613 201 661 q 86 500 112 565 q 61 361 61 435 q 79 250 61 298 q 131 168 98 201 q 211 117 165 135 q 315 99 258 99 q 408 109 359 99 q 509 143 456 119 q 360 -34 462 42 q 87 -151 258 -110 l 87 -266 q 323 -185 216 -240 q 509 -49 431 -130 q 632 138 588 32 q 676 376 676 244 m 542 242 q 352 200 435 200 q 227 242 273 200 q 181 374 181 283 q 197 471 181 426 q 239 548 212 515 q 304 598 266 580 q 388 617 342 617 q 512 546 470 617 q 555 353 555 475 q 542 242 555 297 "},"l":{"x_min":44.21875,"x_max":447,"ha":553,"o":"m 447 0 l 447 108 l 185 108 l 280 704 l 155 704 l 44 0 l 447 0 "},"8":{"x_min":42,"x_max":709,"ha":740,"o":"m 666 275 q 631 402 666 350 q 535 492 597 454 q 660 601 611 539 q 709 753 709 662 q 690 841 709 800 q 638 913 672 882 q 556 960 604 943 q 450 977 508 977 q 325 954 380 977 q 230 895 269 932 q 170 809 191 858 q 150 706 150 760 q 174 599 150 644 q 248 515 198 553 q 88 383 134 453 q 42 226 42 314 q 61 130 42 175 q 119 52 80 86 q 214 0 158 19 q 343 -18 269 -18 q 474 5 415 -18 q 576 70 533 29 q 642 164 618 111 q 666 275 666 216 m 585 744 q 442 535 585 618 q 360 578 393 557 q 308 621 327 600 q 280 666 288 643 q 272 717 272 689 q 281 778 272 749 q 311 829 291 807 q 361 863 331 850 q 433 877 391 877 q 545 840 505 877 q 585 744 585 804 m 544 265 q 530 193 544 226 q 492 134 517 159 q 431 95 467 109 q 350 82 395 82 q 276 93 310 82 q 217 125 242 104 q 177 175 192 145 q 162 241 162 205 q 205 365 162 304 q 340 471 248 426 q 441 420 401 444 q 504 371 481 396 q 535 320 527 346 q 544 265 544 294 "},"p":{"x_min":44.875,"x_max":600,"ha":613,"o":"m 600 513 q 537 656 600 608 q 357 704 475 704 l 156 704 l 44 0 l 169 0 l 211 269 l 299 269 q 422 284 367 269 q 517 332 478 300 q 578 409 557 363 q 600 513 600 455 m 481 498 q 439 406 481 439 q 314 373 397 373 l 228 373 l 264 598 l 346 598 q 444 575 408 598 q 481 498 481 552 "},"4":{"x_min":-19.4375,"x_max":683.328125,"ha":751,"o":"m 666 1 l 683 102 l 527 102 l 625 715 l 480 715 l -5 89 l -19 1 l 404 1 l 363 -260 l 473 -242 l 512 1 l 666 1 m 420 102 l 130 102 l 495 580 l 420 102 "},"‡":{"x_min":30.625,"x_max":693,"ha":719,"o":"m 494 848 l 512 958 l 404 958 l 388 848 l 388 661 l 434 661 l 494 848 m 677 554 l 693 660 l 652 660 l 461 629 l 454 583 l 637 554 l 677 554 m 343 583 l 350 629 l 166 660 l 126 660 l 109 554 l 150 554 l 343 583 m 407 319 l 418 387 l 418 553 l 369 553 l 316 387 l 307 319 l 307 154 l 354 154 l 407 319 m 597 47 l 613 153 l 573 153 l 380 122 l 373 76 l 556 47 l 597 47 m 262 76 l 269 122 l 87 153 l 47 153 l 30 47 l 70 47 l 262 76 m 320 -253 l 336 -143 l 336 46 l 288 46 l 229 -143 l 212 -253 l 320 -253 "},"R":{"x_min":54.28125,"x_max":718,"ha":761,"o":"m 718 719 q 630 901 718 844 q 397 959 543 959 l 205 959 l 54 0 l 182 0 l 247 414 l 320 414 l 550 -9 l 681 19 l 459 425 q 650 527 583 451 q 718 719 718 602 m 589 704 q 532 569 589 617 q 357 522 475 522 l 265 522 l 315 846 l 402 846 q 543 809 497 846 q 589 704 589 773 "},"o":{"x_min":56,"x_max":715.828125,"ha":771,"o":"m 715 414 q 695 534 715 478 q 638 631 675 590 q 544 695 600 672 q 418 718 489 718 q 282 686 347 718 q 166 597 217 654 q 85 462 115 541 q 56 291 56 384 q 76 170 56 225 q 133 74 96 114 q 226 10 171 33 q 353 -12 282 -12 q 489 19 424 -12 q 605 108 554 51 q 685 243 656 164 q 715 414 715 321 m 595 412 q 576 284 595 342 q 525 181 557 225 q 451 113 493 138 q 361 89 408 89 q 225 141 274 89 q 176 293 176 193 q 196 421 176 361 q 247 523 215 480 q 322 590 279 566 q 414 615 365 615 q 547 563 500 615 q 595 412 595 512 "},"5":{"x_min":-17,"x_max":604,"ha":644,"o":"m 548 96 q 527 203 548 157 q 472 279 507 249 q 388 323 436 308 q 284 338 339 338 q 228 334 252 338 q 181 324 205 331 l 246 596 l 604 596 l 604 702 l 164 702 l 57 237 l 144 212 q 196 228 166 221 q 260 236 226 236 q 384 194 342 236 q 426 89 426 153 q 403 0 426 43 q 337 -78 380 -44 q 236 -132 295 -112 q 105 -153 177 -153 q 43 -149 73 -153 q -17 -141 13 -146 l -17 -250 q 33 -257 6 -257 q 96 -257 60 -257 q 273 -229 191 -257 q 416 -155 355 -202 q 512 -44 477 -108 q 548 96 548 20 "}}}
